# xmcd
#
# Track frame offsets:
#	150
#	14023
#	28508
#	38545
#	49735
#	61188
#	73745
#	87844
#	101890
#	115011
#	127157
#	142696
#	156118
#	170215
#	183067
#	196375
#	209970
#	221093
#	233876
#	246479
#
# Disc length: 3446 seconds
#
# Revision: 0
# Processed by: cddbd v1.5.1PL0 Copyright (c) Steve Scherf et al.
# Submitted via: audiograbber 1.82.02
#
DISCID=290d7414
DTITLE=Various Artist - Roots Of The Blues disc 1
DYEAR=1900
DGENRE=Blues
TTITLE0=Blind Lemon Jefferson - Matchbox Blues
TTITLE1=Son House - My Black Mama
TTITLE2=Leadbelly and Sonny Terry - I've Got A Pretty Flower
TTITLE3=Leadbelly and Josh White - How Long
TTITLE4=Robert Johnson - Crossroad Blues
TTITLE5=Bessie Smith - Nobody Knows You When You're Down And Out
TTITLE6=Blind Willie McTell - Broke Down Engine
TTITLE7=Blind Boy Fuller - I'm A Rattlesnakin' Daddy
TTITLE8=Lonnie Johnson - Mean Old Bedbug Blues
TTITLE9=Roosevelt Sykes - Trouble And Whiskey
TTITLE10=Bessie Smith - Careless Love Blues
TTITLE11=Barbeque Bob - California Blues
TTITLE12=Sonny Boy Williamson - Blue Bird Blues
TTITLE13=Big Bill Broonzy - Night Time Is The Right Time
TTITLE14=Sunnyland Slim - Machine Gun Blues
TTITLE15=Tampa Red - Don't You Lie To Me
TTITLE16=Lowell Fulson - Everyday I Have The Blues
TTITLE17=T-Bone Walker - Hypin' Woman Blues
TTITLE18=Gin Mill Sal - Champion Jack Dupree
TTITLE19=Big Joe Turner - Rebecca
EXTD=
EXTT0=
EXTT1=
EXTT2=
EXTT3=
EXTT4=
EXTT5=
EXTT6=
EXTT7=
EXTT8=
EXTT9=
EXTT10=
EXTT11=
EXTT12=
EXTT13=
EXTT14=
EXTT15=
EXTT16=
EXTT17=
EXTT18=
EXTT19=
PLAYORDER=
